<?xml version="1.0" encoding="utf-8"?>
<!-- Generator: Adobe Illustrator 27.9.1, SVG Export Plug-In . SVG Version: 6.00 Build 0)  -->
<svg version="1.1" id="Layer_1" xmlns="http://www.w3.org/2000/svg" xmlns:xlink="http://www.w3.org/1999/xlink" x="0px" y="0px"
	 viewBox="0 0 96 45.9" style="enable-background:new 0 0 96 45.9;" xml:space="preserve">
<style type="text/css">
	.st0{fill:#FFFFFF;}
	.st1{fill-rule:evenodd;clip-rule:evenodd;fill:#FFFFFF;}
</style>
<g>
	<path class="st0" d="M38.2,4.5h-3v1.9h3.5v1.5h-5.4V0h5.4v1.5h-3.5v1.7h3V4.5z"/>
	<path class="st0" d="M45.7,0v5.1c0,0.6-0.1,1.1-0.4,1.5c-0.2,0.4-0.6,0.8-1.1,1c-0.5,0.2-1,0.3-1.6,0.3c-1,0-1.7-0.2-2.3-0.7
		s-0.8-1.2-0.8-2V0h1.9v5.2c0,0.9,0.4,1.3,1.2,1.3c0.4,0,0.7-0.1,0.9-0.3c0.2-0.2,0.3-0.6,0.3-1.1V0H45.7z"/>
	<path class="st0" d="M49.8,5.1h-1v2.8h-1.9V0h3.1c0.9,0,1.7,0.2,2.2,0.6c0.5,0.4,0.8,1,0.8,1.8c0,0.5-0.1,1-0.3,1.4s-0.6,0.6-1,0.9
		l1.6,3.2v0.1h-2L49.8,5.1z M48.7,3.6h1.2c0.4,0,0.6-0.1,0.8-0.3C50.9,3.1,51,2.9,51,2.5s-0.1-0.6-0.3-0.8c-0.2-0.2-0.5-0.3-0.8-0.3
		h-1.2V3.6z"/>
	<path class="st0" d="M60.7,4.2c0,0.8-0.1,1.4-0.4,2c-0.3,0.6-0.7,1-1.2,1.4c-0.5,0.3-1.1,0.5-1.8,0.5S56,7.9,55.5,7.6
		c-0.5-0.3-0.9-0.7-1.2-1.3c-0.3-0.6-0.4-1.2-0.5-2V3.9c0-0.8,0.1-1.4,0.4-2c0.3-0.6,0.7-1,1.2-1.4C56,0.2,56.6,0,57.3,0
		c0.7,0,1.3,0.2,1.8,0.5c0.5,0.3,0.9,0.8,1.2,1.4c0.3,0.6,0.4,1.3,0.4,2V4.2z M58.8,3.9c0-0.8-0.1-1.4-0.4-1.8
		c-0.3-0.4-0.6-0.6-1.1-0.6c-0.9,0-1.5,0.7-1.5,2.1l0,0.6c0,0.8,0.1,1.4,0.4,1.8c0.3,0.4,0.6,0.6,1.1,0.6c0.5,0,0.8-0.2,1.1-0.6
		c0.3-0.4,0.4-1,0.4-1.8V3.9z"/>
	<path class="st0" d="M63.6,5.2v2.7h-1.9V0h3.1c0.6,0,1.1,0.1,1.6,0.3c0.5,0.2,0.8,0.5,1.1,0.9c0.3,0.4,0.4,0.9,0.4,1.4
		c0,0.8-0.3,1.4-0.8,1.8c-0.5,0.5-1.3,0.7-2.3,0.7H63.6z M63.6,3.7h1.2c0.4,0,0.6-0.1,0.8-0.3c0.2-0.2,0.3-0.4,0.3-0.8
		c0-0.4-0.1-0.7-0.3-0.9c-0.2-0.2-0.5-0.3-0.8-0.3h-1.3V3.7z"/>
	<path class="st0" d="M73.7,4.5h-3v1.9h3.5v1.5h-5.4V0h5.4v1.5h-3.5v1.7h3V4.5z"/>
	<path class="st0" d="M79.5,6.4h-2.6l-0.5,1.5h-2L77.3,0h1.8L82,7.9h-2L79.5,6.4z M77.4,4.9H79l-0.8-2.7L77.4,4.9z"/>
	<path class="st0" d="M89.1,7.9h-1.9L84.4,3v4.9h-1.9V0h1.9l2.8,4.9V0h1.9V7.9z"/>
</g>
<g>
	<path class="st0" d="M35.3,20.6h-1.9v-7.9h1.9V20.6z"/>
	<path class="st0" d="M43.2,20.6h-1.9l-2.8-4.9v4.9h-1.9v-7.9h1.9l2.8,4.9v-4.9h1.9V20.6z"/>
	<path class="st0" d="M44.4,20.6v-7.9h2.5c0.7,0,1.3,0.2,1.9,0.5c0.6,0.3,1,0.8,1.3,1.3c0.3,0.6,0.5,1.2,0.5,1.9v0.4
		c0,0.7-0.2,1.4-0.5,1.9c-0.3,0.6-0.7,1-1.3,1.3c-0.6,0.3-1.2,0.5-1.8,0.5H44.4z M46.3,14.2v4.9H47c0.5,0,1-0.2,1.3-0.6
		c0.3-0.4,0.4-1,0.4-1.7v-0.3c0-0.8-0.1-1.3-0.4-1.7c-0.3-0.4-0.7-0.6-1.3-0.6H46.3z"/>
	<path class="st0" d="M57.7,12.7v5.1c0,0.6-0.1,1.1-0.4,1.5c-0.2,0.4-0.6,0.8-1.1,1c-0.5,0.2-1,0.3-1.6,0.3c-1,0-1.7-0.2-2.3-0.7
		c-0.5-0.5-0.8-1.2-0.8-2v-5.2h1.9v5.2c0,0.9,0.4,1.3,1.2,1.3c0.4,0,0.7-0.1,0.9-0.3c0.2-0.2,0.3-0.6,0.3-1.1v-5.1H57.7z"/>
	<path class="st0" d="M62.9,18.5c0-0.3-0.1-0.5-0.3-0.6c-0.2-0.2-0.5-0.3-1-0.5c-0.5-0.2-0.9-0.3-1.2-0.5c-1-0.5-1.5-1.2-1.5-2.1
		c0-0.4,0.1-0.8,0.4-1.2c0.3-0.3,0.6-0.6,1.1-0.8s1-0.3,1.6-0.3c0.6,0,1.1,0.1,1.5,0.3c0.4,0.2,0.8,0.5,1,0.9
		c0.2,0.4,0.4,0.8,0.4,1.3h-1.9c0-0.3-0.1-0.6-0.3-0.7c-0.2-0.2-0.5-0.3-0.8-0.3c-0.3,0-0.6,0.1-0.8,0.2c-0.2,0.1-0.3,0.3-0.3,0.6
		c0,0.2,0.1,0.4,0.3,0.5c0.2,0.2,0.6,0.3,1.1,0.5c0.5,0.2,1,0.4,1.3,0.6c0.8,0.5,1.3,1.2,1.3,2c0,0.7-0.3,1.2-0.8,1.6
		c-0.5,0.4-1.2,0.6-2.1,0.6c-0.6,0-1.2-0.1-1.7-0.3c-0.5-0.2-0.9-0.5-1.2-0.9c-0.3-0.4-0.4-0.9-0.4-1.4h1.9c0,0.4,0.1,0.7,0.3,0.9
		c0.2,0.2,0.6,0.3,1.1,0.3c0.3,0,0.6-0.1,0.7-0.2C62.8,18.9,62.9,18.7,62.9,18.5z"/>
	<path class="st0" d="M72,14.2h-2.4v6.4h-1.9v-6.4h-2.3v-1.5H72V14.2z"/>
	<path class="st0" d="M75.7,17.8h-1v2.8h-1.9v-7.9h3.1c0.9,0,1.7,0.2,2.2,0.6c0.5,0.4,0.8,1,0.8,1.8c0,0.5-0.1,1-0.3,1.4
		c-0.2,0.4-0.6,0.6-1,0.9l1.6,3.2v0.1h-2L75.7,17.8z M74.6,16.3h1.2c0.4,0,0.6-0.1,0.8-0.3c0.2-0.2,0.3-0.5,0.3-0.8
		s-0.1-0.6-0.3-0.8c-0.2-0.2-0.5-0.3-0.8-0.3h-1.2V16.3z"/>
	<path class="st0" d="M82,20.6h-1.9v-7.9H82V20.6z"/>
	<path class="st0" d="M87.8,19.1h-2.6l-0.5,1.5h-2l2.9-7.9h1.8l2.9,7.9h-2L87.8,19.1z M85.6,17.6h1.7l-0.8-2.7L85.6,17.6z"/>
	<path class="st0" d="M92.7,19.1H96v1.5h-5.2v-7.9h1.9V19.1z"/>
</g>
<g>
	<path class="st0" d="M38.2,29.8h-3v1.9h3.5v1.5h-5.4v-7.9h5.4v1.5h-3.5v1.7h3V29.8z"/>
	<path class="st0" d="M42,25.3l1.8,5.5l1.7-5.5H48v7.9h-1.9v-1.8l0.2-3.8l-1.9,5.6h-1.3l-1.9-5.6l0.2,3.8v1.8h-1.9v-7.9H42z"/>
	<path class="st0" d="M51.2,33.2h-1.9v-7.9h1.9V33.2z"/>
	<path class="st0" d="M56.6,31.1c0-0.3-0.1-0.5-0.3-0.6c-0.2-0.2-0.5-0.3-1-0.5c-0.5-0.2-0.9-0.3-1.2-0.5c-1-0.5-1.5-1.2-1.5-2.1
		c0-0.4,0.1-0.8,0.4-1.2c0.3-0.3,0.6-0.6,1.1-0.8c0.5-0.2,1-0.3,1.6-0.3c0.6,0,1.1,0.1,1.5,0.3c0.4,0.2,0.8,0.5,1,0.9
		c0.2,0.4,0.4,0.8,0.4,1.3h-1.9c0-0.3-0.1-0.6-0.3-0.7c-0.2-0.2-0.5-0.3-0.8-0.3c-0.3,0-0.6,0.1-0.8,0.2c-0.2,0.1-0.3,0.3-0.3,0.6
		c0,0.2,0.1,0.4,0.3,0.5c0.2,0.2,0.6,0.3,1.1,0.5c0.5,0.2,1,0.4,1.3,0.6c0.8,0.5,1.3,1.2,1.3,2c0,0.7-0.3,1.2-0.8,1.6
		c-0.5,0.4-1.2,0.6-2.1,0.6c-0.6,0-1.2-0.1-1.7-0.3c-0.5-0.2-0.9-0.5-1.2-0.9c-0.3-0.4-0.4-0.9-0.4-1.4h1.9c0,0.4,0.1,0.7,0.3,0.9
		c0.2,0.2,0.6,0.3,1.1,0.3c0.3,0,0.6-0.1,0.7-0.2C56.5,31.5,56.6,31.3,56.6,31.1z"/>
	<path class="st0" d="M63.5,31.1c0-0.3-0.1-0.5-0.3-0.6c-0.2-0.2-0.5-0.3-1-0.5c-0.5-0.2-0.9-0.3-1.2-0.5c-1-0.5-1.5-1.2-1.5-2.1
		c0-0.4,0.1-0.8,0.4-1.2c0.3-0.3,0.6-0.6,1.1-0.8c0.5-0.2,1-0.3,1.6-0.3c0.6,0,1.1,0.1,1.5,0.3c0.4,0.2,0.8,0.5,1,0.9
		c0.2,0.4,0.4,0.8,0.4,1.3h-1.9c0-0.3-0.1-0.6-0.3-0.7c-0.2-0.2-0.5-0.3-0.8-0.3c-0.3,0-0.6,0.1-0.8,0.2c-0.2,0.1-0.3,0.3-0.3,0.6
		c0,0.2,0.1,0.4,0.3,0.5c0.2,0.2,0.6,0.3,1.1,0.5c0.5,0.2,1,0.4,1.3,0.6c0.8,0.5,1.3,1.2,1.3,2c0,0.7-0.3,1.2-0.8,1.6
		c-0.5,0.4-1.2,0.6-2.1,0.6c-0.6,0-1.2-0.1-1.7-0.3c-0.5-0.2-0.9-0.5-1.2-0.9c-0.3-0.4-0.4-0.9-0.4-1.4h1.9c0,0.4,0.1,0.7,0.3,0.9
		c0.2,0.2,0.6,0.3,1.1,0.3c0.3,0,0.6-0.1,0.7-0.2C63.4,31.5,63.5,31.3,63.5,31.1z"/>
	<path class="st0" d="M68.4,33.2h-1.9v-7.9h1.9V33.2z"/>
	<path class="st0" d="M76.3,29.4c0,0.8-0.1,1.4-0.4,2c-0.3,0.6-0.7,1-1.2,1.4c-0.5,0.3-1.1,0.5-1.8,0.5s-1.3-0.2-1.8-0.5
		c-0.5-0.3-0.9-0.7-1.2-1.3c-0.3-0.6-0.4-1.2-0.5-2v-0.4c0-0.8,0.1-1.4,0.4-2c0.3-0.6,0.7-1,1.2-1.4c0.5-0.3,1.1-0.5,1.8-0.5
		c0.7,0,1.3,0.2,1.8,0.5c0.5,0.3,0.9,0.8,1.2,1.4c0.3,0.6,0.4,1.3,0.4,2V29.4z M74.4,29.1c0-0.8-0.1-1.4-0.4-1.8
		c-0.3-0.4-0.6-0.6-1.1-0.6c-0.9,0-1.5,0.7-1.5,2.1l0,0.6c0,0.8,0.1,1.4,0.4,1.8s0.6,0.6,1.1,0.6c0.5,0,0.8-0.2,1.1-0.6
		c0.3-0.4,0.4-1,0.4-1.8V29.1z"/>
	<path class="st0" d="M83.8,33.2H82l-2.8-4.9v4.9h-1.9v-7.9h1.9l2.8,4.9v-4.9h1.9V33.2z"/>
	<path class="st0" d="M89.1,31.1c0-0.3-0.1-0.5-0.3-0.6c-0.2-0.2-0.5-0.3-1-0.5c-0.5-0.2-0.9-0.3-1.2-0.5c-1-0.5-1.5-1.2-1.5-2.1
		c0-0.4,0.1-0.8,0.4-1.2c0.3-0.3,0.6-0.6,1.1-0.8c0.5-0.2,1-0.3,1.6-0.3c0.6,0,1.1,0.1,1.5,0.3c0.4,0.2,0.8,0.5,1,0.9
		c0.2,0.4,0.4,0.8,0.4,1.3h-1.9c0-0.3-0.1-0.6-0.3-0.7c-0.2-0.2-0.5-0.3-0.8-0.3c-0.3,0-0.6,0.1-0.8,0.2c-0.2,0.1-0.3,0.3-0.3,0.6
		c0,0.2,0.1,0.4,0.3,0.5c0.2,0.2,0.6,0.3,1.1,0.5c0.5,0.2,1,0.4,1.3,0.6c0.8,0.5,1.3,1.2,1.3,2c0,0.7-0.3,1.2-0.8,1.6
		s-1.2,0.6-2.1,0.6c-0.6,0-1.2-0.1-1.7-0.3c-0.5-0.2-0.9-0.5-1.2-0.9c-0.3-0.4-0.4-0.9-0.4-1.4h1.9c0,0.4,0.1,0.7,0.3,0.9
		c0.2,0.2,0.6,0.3,1.1,0.3c0.3,0,0.6-0.1,0.7-0.2C89,31.5,89.1,31.3,89.1,31.1z"/>
</g>
<g>
	<path class="st0" d="M35.2,43.2v2.7h-1.9V38h3.1c0.6,0,1.1,0.1,1.6,0.3c0.5,0.2,0.8,0.5,1.1,0.9c0.3,0.4,0.4,0.9,0.4,1.4
		c0,0.8-0.3,1.4-0.8,1.8c-0.5,0.5-1.3,0.7-2.3,0.7H35.2z M35.2,41.7h1.2c0.4,0,0.6-0.1,0.8-0.3c0.2-0.2,0.3-0.4,0.3-0.8
		c0-0.4-0.1-0.7-0.3-0.9c-0.2-0.2-0.5-0.3-0.8-0.3h-1.3V41.7z"/>
	<path class="st0" d="M47.2,42c0,0.8-0.1,1.4-0.4,2c-0.3,0.6-0.7,1-1.2,1.4c-0.5,0.3-1.1,0.5-1.8,0.5c-0.7,0-1.3-0.2-1.8-0.5
		c-0.5-0.3-0.9-0.7-1.2-1.3c-0.3-0.6-0.4-1.2-0.5-2v-0.4c0-0.8,0.1-1.4,0.4-2c0.3-0.6,0.7-1,1.2-1.4c0.5-0.3,1.1-0.5,1.8-0.5
		c0.7,0,1.3,0.2,1.8,0.5c0.5,0.3,0.9,0.8,1.2,1.4c0.3,0.6,0.4,1.3,0.4,2V42z M45.2,41.7c0-0.8-0.1-1.4-0.4-1.8
		c-0.3-0.4-0.6-0.6-1.1-0.6c-0.9,0-1.5,0.7-1.5,2.1l0,0.6c0,0.8,0.1,1.4,0.4,1.8c0.3,0.4,0.6,0.6,1.1,0.6c0.5,0,0.8-0.2,1.1-0.6
		c0.3-0.4,0.4-1,0.4-1.8V41.7z"/>
	<path class="st0" d="M51.1,43.1h-1v2.8h-1.9V38h3.1c0.9,0,1.7,0.2,2.2,0.6c0.5,0.4,0.8,1,0.8,1.8c0,0.5-0.1,1-0.3,1.4
		c-0.2,0.4-0.6,0.6-1,0.9l1.6,3.2v0.1h-2L51.1,43.1z M50,41.6h1.2c0.4,0,0.6-0.1,0.8-0.3c0.2-0.2,0.3-0.5,0.3-0.8S52.2,40,52,39.8
		c-0.2-0.2-0.5-0.3-0.8-0.3H50V41.6z"/>
	<path class="st0" d="M61.2,39.5h-2.4v6.4H57v-6.4h-2.3V38h6.6V39.5z"/>
	<path class="st0" d="M65.8,44.4h-2.6l-0.5,1.5h-2l2.9-7.9h1.8l2.9,7.9h-2L65.8,44.4z M63.7,42.9h1.7l-0.8-2.7L63.7,42.9z"/>
	<path class="st0" d="M70.8,44.4h3.3v1.5h-5.2V38h1.9V44.4z"/>
</g>
<g>
	<path class="st1" d="M12.1,35.8c0.2,0.3,0.4,0.6,0.7,0.9l0,0c0,0,0.2,0.2,0.5,0.5c1.8,1.5,2.2,1.2,4-0.8l2.2-2.6l-2.7-23.6h-5
		L9.1,32.6C10.4,33.5,11.4,34.6,12.1,35.8z"/>
</g>
<path class="st1" d="M14.8,9.6L14.8,9.6c0-5.3,4.3-9.6,9.6-9.6h0v0C24.4,5.3,20.1,9.6,14.8,9.6L14.8,9.6z"/>
<g>
	<path class="st1" d="M15.1,38.8c0.5,0.5,0.9,0.4,2.9-1.8l5.3-6.1c2.6,2.3,4.2,3.3,1.7,6.2l-2.2,2.6C18.5,42.6,15.1,38.8,15.1,38.8z
		"/>
	<path class="st0" d="M13.1,38.2L13.1,38.2c-0.3-0.3-0.5-0.6-0.7-0.9C10.6,34,6.7,30.9,0,32.4c3.9,1.4,1.7,6.7,7.6,8.8
		c1,0.4,2,0.9,2.8,1.7l1.6,1.5c2.7,2.5,5.8,1.4,7.5-0.4l3-3.2C18,43.7,13.1,38.2,13.1,38.2z M2.1,33.2c0,0-0.1-0.1-0.1-0.1L2,33l0,0
		l0-0.1l0.1,0c4.2,1.2,7.6,4.6,9.5,8.5C8.6,37.7,6.8,35.2,2.1,33.2z"/>
</g>
</svg>
