<?xml version="1.0" encoding="utf-8"?>
<!-- Generator: Adobe Illustrator 27.9.1, SVG Export Plug-In . SVG Version: 6.00 Build 0)  -->
<svg version="1.1" id="Layer_1" xmlns="http://www.w3.org/2000/svg" xmlns:xlink="http://www.w3.org/1999/xlink" x="0px" y="0px"
	 viewBox="0 0 96.9 44.6" style="enable-background:new 0 0 96.9 44.6;" xml:space="preserve">
<style type="text/css">
	.st0{fill-rule:evenodd;clip-rule:evenodd;fill:#6989A5;}
	.st1{fill:#084C7E;}
	.st2{fill-rule:evenodd;clip-rule:evenodd;fill:#084C7E;}
	.st3{fill-rule:evenodd;clip-rule:evenodd;fill:#50B0A4;}
	.st4{fill-rule:evenodd;clip-rule:evenodd;fill:#FFFFFF;}
</style>
<g>
	<polygon class="st0" points="20.9,39.1 9,39.1 12.5,10.1 17.5,10.1 	"/>
</g>
<g>
	<path class="st1" d="M38.4,4.7h-3v1.9h3.6V8h-5.5V0.1h5.5v1.5h-3.6v1.7h3V4.7z"/>
	<path class="st1" d="M45.9,0.1v5.2c0,0.6-0.1,1.1-0.4,1.5c-0.3,0.4-0.6,0.8-1.1,1c-0.5,0.2-1,0.3-1.7,0.3c-1,0-1.7-0.3-2.3-0.8
		c-0.6-0.5-0.8-1.2-0.9-2.1V0.1h1.9v5.3c0,0.9,0.4,1.3,1.2,1.3c0.4,0,0.7-0.1,0.9-0.3C43.9,6.1,44,5.8,44,5.3V0.1H45.9z"/>
	<path class="st1" d="M50.1,5.2h-1V8h-1.9V0.1h3.1c0.9,0,1.7,0.2,2.2,0.6c0.5,0.4,0.8,1,0.8,1.8c0,0.6-0.1,1-0.3,1.4
		c-0.2,0.4-0.6,0.7-1,0.9L53.5,8V8h-2.1L50.1,5.2z M49,3.8h1.2c0.4,0,0.6-0.1,0.8-0.3c0.2-0.2,0.3-0.5,0.3-0.8s-0.1-0.6-0.3-0.8
		c-0.2-0.2-0.5-0.3-0.8-0.3H49V3.8z"/>
	<path class="st1" d="M61.1,4.2c0,0.8-0.1,1.5-0.4,2.1S60,7.4,59.5,7.7C59,8,58.4,8.2,57.7,8.2S56.4,8,55.9,7.7
		c-0.5-0.3-0.9-0.8-1.2-1.3c-0.3-0.6-0.4-1.2-0.5-2V3.9c0-0.8,0.1-1.5,0.4-2.1c0.3-0.6,0.7-1.1,1.2-1.4C56.4,0.2,57,0,57.7,0
		c0.7,0,1.3,0.2,1.8,0.5c0.5,0.3,0.9,0.8,1.2,1.4c0.3,0.6,0.4,1.3,0.4,2V4.2z M59.2,3.9c0-0.8-0.1-1.4-0.4-1.8
		c-0.3-0.4-0.6-0.6-1.1-0.6c-1,0-1.5,0.7-1.5,2.2l0,0.6c0,0.8,0.1,1.4,0.4,1.8c0.3,0.4,0.6,0.6,1.2,0.6c0.5,0,0.9-0.2,1.1-0.6
		c0.3-0.4,0.4-1,0.4-1.8V3.9z"/>
	<path class="st1" d="M64,5.4V8h-1.9V0.1h3.2c0.6,0,1.1,0.1,1.6,0.3c0.5,0.2,0.8,0.5,1.1,1c0.3,0.4,0.4,0.9,0.4,1.4
		c0,0.8-0.3,1.4-0.8,1.9c-0.6,0.5-1.3,0.7-2.3,0.7H64z M64,3.9h1.3c0.4,0,0.7-0.1,0.8-0.3c0.2-0.2,0.3-0.4,0.3-0.8
		c0-0.4-0.1-0.7-0.3-0.9c-0.2-0.2-0.5-0.3-0.8-0.3H64V3.9z"/>
	<path class="st1" d="M74.3,4.7h-3v1.9h3.6V8h-5.5V0.1h5.5v1.5h-3.6v1.7h3V4.7z"/>
	<path class="st1" d="M80.2,6.6h-2.6L77.1,8h-2l2.9-7.9h1.8L82.7,8h-2.1L80.2,6.6z M78,5.1h1.7l-0.9-2.8L78,5.1z"/>
	<path class="st1" d="M89.9,8H88l-2.8-4.9V8h-1.9V0.1h1.9L88,5.1V0.1h1.9V8z"/>
</g>
<g>
	<path class="st1" d="M35.5,20.2h-1.9v-7.9h1.9V20.2z"/>
	<path class="st1" d="M43.5,20.2h-1.9l-2.8-4.9v4.9h-1.9v-7.9h1.9l2.8,4.9v-4.9h1.9V20.2z"/>
	<path class="st1" d="M44.7,20.2v-7.9h2.6c0.7,0,1.3,0.2,1.9,0.5c0.6,0.3,1,0.8,1.3,1.3c0.3,0.6,0.5,1.2,0.5,1.9v0.4
		c0,0.7-0.2,1.4-0.5,2c-0.3,0.6-0.7,1-1.3,1.4c-0.6,0.3-1.2,0.5-1.9,0.5H44.7z M46.6,13.7v5h0.7c0.5,0,1-0.2,1.3-0.6
		c0.3-0.4,0.4-1,0.4-1.7v-0.3c0-0.8-0.1-1.3-0.4-1.7c-0.3-0.4-0.7-0.6-1.3-0.6H46.6z"/>
	<path class="st1" d="M58.1,12.3v5.2c0,0.6-0.1,1.1-0.4,1.5c-0.3,0.4-0.6,0.8-1.1,1c-0.5,0.2-1,0.3-1.7,0.3c-1,0-1.7-0.3-2.3-0.8
		c-0.6-0.5-0.8-1.2-0.9-2.1v-5.2h1.9v5.3c0,0.9,0.4,1.3,1.2,1.3c0.4,0,0.7-0.1,0.9-0.3c0.2-0.2,0.3-0.6,0.3-1.1v-5.2H58.1z"/>
	<path class="st1" d="M63.4,18.1c0-0.3-0.1-0.5-0.3-0.7c-0.2-0.2-0.5-0.3-1-0.5c-0.5-0.2-0.9-0.3-1.2-0.5c-1-0.5-1.5-1.2-1.5-2.1
		c0-0.4,0.1-0.8,0.4-1.2c0.3-0.3,0.6-0.6,1.1-0.8c0.5-0.2,1-0.3,1.6-0.3c0.6,0,1.1,0.1,1.5,0.3c0.5,0.2,0.8,0.5,1.1,0.9
		c0.3,0.4,0.4,0.8,0.4,1.3h-1.9c0-0.3-0.1-0.6-0.3-0.8c-0.2-0.2-0.5-0.3-0.8-0.3c-0.3,0-0.6,0.1-0.8,0.2c-0.2,0.2-0.3,0.3-0.3,0.6
		c0,0.2,0.1,0.4,0.3,0.6c0.2,0.2,0.6,0.3,1.2,0.5c0.5,0.2,1,0.4,1.4,0.6c0.9,0.5,1.3,1.2,1.3,2c0,0.7-0.3,1.2-0.8,1.6
		c-0.5,0.4-1.2,0.6-2.2,0.6c-0.6,0-1.2-0.1-1.7-0.3c-0.5-0.2-0.9-0.5-1.2-0.9c-0.3-0.4-0.4-0.9-0.4-1.4H61c0,0.4,0.1,0.7,0.3,0.9
		c0.2,0.2,0.6,0.3,1.1,0.3c0.3,0,0.6-0.1,0.7-0.2C63.3,18.5,63.4,18.3,63.4,18.1z"/>
	<path class="st1" d="M72.5,13.7h-2.4v6.5h-1.9v-6.5h-2.3v-1.5h6.6V13.7z"/>
	<path class="st1" d="M76.3,17.4h-1v2.8h-1.9v-7.9h3.1c0.9,0,1.7,0.2,2.2,0.6c0.5,0.4,0.8,1,0.8,1.8c0,0.6-0.1,1-0.3,1.4
		c-0.2,0.4-0.6,0.7-1,0.9l1.7,3.2v0.1h-2.1L76.3,17.4z M75.3,15.9h1.2c0.4,0,0.6-0.1,0.8-0.3c0.2-0.2,0.3-0.5,0.3-0.8
		c0-0.3-0.1-0.6-0.3-0.8c-0.2-0.2-0.5-0.3-0.8-0.3h-1.2V15.9z"/>
	<path class="st1" d="M82.7,20.2h-1.9v-7.9h1.9V20.2z"/>
	<path class="st1" d="M88.5,18.7h-2.6l-0.5,1.5h-2l2.9-7.9h1.8l2.9,7.9H89L88.5,18.7z M86.4,17.2h1.7l-0.9-2.8L86.4,17.2z"/>
	<path class="st1" d="M93.5,18.7h3.3v1.5h-5.2v-7.9h1.9V18.7z"/>
</g>
<g>
	<path class="st1" d="M38.4,29h-3v1.9h3.6v1.5h-5.5v-7.9h5.5v1.5h-3.6v1.7h3V29z"/>
	<path class="st1" d="M42.2,24.4l1.8,5.5l1.8-5.5h2.5v7.9h-1.9v-1.9l0.2-3.8l-1.9,5.7h-1.3l-1.9-5.7l0.2,3.8v1.9h-1.9v-7.9H42.2z"/>
	<path class="st1" d="M51.5,32.3h-1.9v-7.9h1.9V32.3z"/>
	<path class="st1" d="M57,30.2c0-0.3-0.1-0.5-0.3-0.7c-0.2-0.2-0.5-0.3-1-0.5c-0.5-0.2-0.9-0.3-1.2-0.5c-1-0.5-1.5-1.2-1.5-2.1
		c0-0.4,0.1-0.8,0.4-1.2c0.3-0.3,0.6-0.6,1.1-0.8c0.5-0.2,1-0.3,1.6-0.3c0.6,0,1.1,0.1,1.5,0.3c0.5,0.2,0.8,0.5,1.1,0.9
		c0.3,0.4,0.4,0.8,0.4,1.3H57c0-0.3-0.1-0.6-0.3-0.8c-0.2-0.2-0.5-0.3-0.8-0.3c-0.3,0-0.6,0.1-0.8,0.2c-0.2,0.2-0.3,0.3-0.3,0.6
		c0,0.2,0.1,0.4,0.3,0.6c0.2,0.2,0.6,0.3,1.2,0.5s1,0.4,1.4,0.6c0.9,0.5,1.3,1.2,1.3,2c0,0.7-0.3,1.2-0.8,1.6
		c-0.5,0.4-1.2,0.6-2.2,0.6c-0.6,0-1.2-0.1-1.7-0.3c-0.5-0.2-0.9-0.5-1.2-0.9c-0.3-0.4-0.4-0.9-0.4-1.4h1.9c0,0.4,0.1,0.7,0.3,0.9
		c0.2,0.2,0.6,0.3,1.1,0.3c0.3,0,0.6-0.1,0.7-0.2C56.9,30.7,57,30.5,57,30.2z"/>
	<path class="st1" d="M64,30.2c0-0.3-0.1-0.5-0.3-0.7c-0.2-0.2-0.5-0.3-1-0.5c-0.5-0.2-0.9-0.3-1.2-0.5c-1-0.5-1.5-1.2-1.5-2.1
		c0-0.4,0.1-0.8,0.4-1.2c0.3-0.3,0.6-0.6,1.1-0.8c0.5-0.2,1-0.3,1.6-0.3c0.6,0,1.1,0.1,1.5,0.3c0.5,0.2,0.8,0.5,1.1,0.9
		c0.3,0.4,0.4,0.8,0.4,1.3H64c0-0.3-0.1-0.6-0.3-0.8c-0.2-0.2-0.5-0.3-0.8-0.3c-0.3,0-0.6,0.1-0.8,0.2c-0.2,0.2-0.3,0.3-0.3,0.6
		c0,0.2,0.1,0.4,0.3,0.6c0.2,0.2,0.6,0.3,1.2,0.5c0.5,0.2,1,0.4,1.4,0.6c0.9,0.5,1.3,1.2,1.3,2c0,0.7-0.3,1.2-0.8,1.6
		c-0.5,0.4-1.2,0.6-2.2,0.6c-0.6,0-1.2-0.1-1.7-0.3c-0.5-0.2-0.9-0.5-1.2-0.9c-0.3-0.4-0.4-0.9-0.4-1.4h1.9c0,0.4,0.1,0.7,0.3,0.9
		c0.2,0.2,0.6,0.3,1.1,0.3c0.3,0,0.6-0.1,0.7-0.2C63.9,30.7,64,30.5,64,30.2z"/>
	<path class="st1" d="M68.9,32.3H67v-7.9h1.9V32.3z"/>
	<path class="st1" d="M77,28.5c0,0.8-0.1,1.5-0.4,2.1c-0.3,0.6-0.7,1.1-1.2,1.4c-0.5,0.3-1.1,0.5-1.8,0.5s-1.3-0.2-1.8-0.5
		c-0.5-0.3-0.9-0.8-1.2-1.3c-0.3-0.6-0.4-1.2-0.5-2v-0.4c0-0.8,0.1-1.5,0.4-2.1c0.3-0.6,0.7-1.1,1.2-1.4c0.5-0.3,1.1-0.5,1.8-0.5
		c0.7,0,1.3,0.2,1.8,0.5c0.5,0.3,0.9,0.8,1.2,1.4c0.3,0.6,0.4,1.3,0.4,2V28.5z M75,28.2c0-0.8-0.1-1.4-0.4-1.8
		c-0.3-0.4-0.6-0.6-1.1-0.6c-1,0-1.5,0.7-1.5,2.2l0,0.6c0,0.8,0.1,1.4,0.4,1.8c0.3,0.4,0.6,0.6,1.2,0.6c0.5,0,0.9-0.2,1.1-0.6
		c0.3-0.4,0.4-1,0.4-1.8V28.2z"/>
	<path class="st1" d="M84.6,32.3h-1.9l-2.8-4.9v4.9h-1.9v-7.9h1.9l2.8,4.9v-4.9h1.9V32.3z"/>
	<path class="st1" d="M89.9,30.2c0-0.3-0.1-0.5-0.3-0.7c-0.2-0.2-0.5-0.3-1-0.5c-0.5-0.2-0.9-0.3-1.2-0.5c-1-0.5-1.5-1.2-1.5-2.1
		c0-0.4,0.1-0.8,0.4-1.2c0.3-0.3,0.6-0.6,1.1-0.8c0.5-0.2,1-0.3,1.6-0.3c0.6,0,1.1,0.1,1.5,0.3c0.5,0.2,0.8,0.5,1.1,0.9
		c0.3,0.4,0.4,0.8,0.4,1.3h-1.9c0-0.3-0.1-0.6-0.3-0.8c-0.2-0.2-0.5-0.3-0.8-0.3c-0.3,0-0.6,0.1-0.8,0.2c-0.2,0.2-0.3,0.3-0.3,0.6
		c0,0.2,0.1,0.4,0.3,0.6c0.2,0.2,0.6,0.3,1.2,0.5c0.5,0.2,1,0.4,1.4,0.6c0.9,0.5,1.3,1.2,1.3,2c0,0.7-0.3,1.2-0.8,1.6
		c-0.5,0.4-1.2,0.6-2.2,0.6c-0.6,0-1.2-0.1-1.7-0.3c-0.5-0.2-0.9-0.5-1.2-0.9c-0.3-0.4-0.4-0.9-0.4-1.4h1.9c0,0.4,0.1,0.7,0.3,0.9
		c0.2,0.2,0.6,0.3,1.1,0.3c0.3,0,0.6-0.1,0.7-0.2C89.8,30.7,89.9,30.5,89.9,30.2z"/>
</g>
<g>
	<path class="st1" d="M35.4,41.8v2.7h-1.9v-7.9h3.2c0.6,0,1.1,0.1,1.6,0.3c0.5,0.2,0.8,0.5,1.1,1c0.3,0.4,0.4,0.9,0.4,1.4
		c0,0.8-0.3,1.4-0.8,1.9c-0.6,0.5-1.3,0.7-2.3,0.7H35.4z M35.4,40.3h1.3c0.4,0,0.7-0.1,0.8-0.3c0.2-0.2,0.3-0.4,0.3-0.8
		c0-0.4-0.1-0.7-0.3-0.9C37.3,38.1,37,38,36.7,38h-1.3V40.3z"/>
	<path class="st1" d="M47.5,40.7c0,0.8-0.1,1.5-0.4,2.1c-0.3,0.6-0.7,1.1-1.2,1.4c-0.5,0.3-1.1,0.5-1.8,0.5c-0.7,0-1.3-0.2-1.8-0.5
		c-0.5-0.3-0.9-0.8-1.2-1.3s-0.4-1.2-0.5-2v-0.4c0-0.8,0.1-1.5,0.4-2.1c0.3-0.6,0.7-1.1,1.2-1.4c0.5-0.3,1.1-0.5,1.8-0.5
		c0.7,0,1.3,0.2,1.8,0.5c0.5,0.3,0.9,0.8,1.2,1.4c0.3,0.6,0.4,1.3,0.4,2V40.7z M45.5,40.4c0-0.8-0.1-1.4-0.4-1.8
		c-0.3-0.4-0.6-0.6-1.1-0.6c-1,0-1.5,0.7-1.5,2.2l0,0.6c0,0.8,0.1,1.4,0.4,1.8c0.3,0.4,0.6,0.6,1.2,0.6c0.5,0,0.9-0.2,1.1-0.6
		c0.3-0.4,0.4-1,0.4-1.8V40.4z"/>
	<path class="st1" d="M51.4,41.7h-1v2.8h-1.9v-7.9h3.1c0.9,0,1.7,0.2,2.2,0.6c0.5,0.4,0.8,1,0.8,1.8c0,0.6-0.1,1-0.3,1.4
		c-0.2,0.4-0.6,0.7-1,0.9l1.7,3.2v0.1h-2.1L51.4,41.7z M50.4,40.2h1.2c0.4,0,0.6-0.1,0.8-0.3c0.2-0.2,0.3-0.5,0.3-0.8
		c0-0.3-0.1-0.6-0.3-0.8c-0.2-0.2-0.5-0.3-0.8-0.3h-1.2V40.2z"/>
	<path class="st1" d="M61.7,38h-2.4v6.5h-1.9V38h-2.3v-1.5h6.6V38z"/>
	<path class="st1" d="M66.4,43h-2.6l-0.5,1.5h-2l2.9-7.9h1.8l2.9,7.9h-2.1L66.4,43z M64.2,41.5h1.7L65,38.8L64.2,41.5z"/>
	<path class="st1" d="M71.4,43h3.3v1.5h-5.2v-7.9h1.9V43z"/>
</g>
<path class="st2" d="M13.4,36.9c2.3,2,2.7,2,4.7-0.3l5.4-6.2c2.6,2.3,4.2,3.4,1.7,6.3l-2.3,2.6C18.5,42.4,13.4,36.9,13.4,36.9z"/>
<path class="st3" d="M13.5,36.9L13.5,36.9L13.5,36.9c-0.3-0.3-0.5-0.6-0.7-0.9c-1.9-3.3-6-6.3-12.7-4.6c4,1.3,1.9,6.8,8,8.7
	c1,0.3,2,0.9,2.8,1.6l1.6,1.4c2.8,2.5,5.9,1.2,7.5-0.6l2.9-3.3C18.5,42.4,13.5,36.9,13.5,36.9z"/>
<g>
	<path class="st4" d="M12.1,40.3c-0.9-1.7-2-3.2-3.4-4.5c-1.8-1.7-3.6-2.9-6.5-3.7l0,0c4,1.6,5.8,3.3,8.3,6.3L12.1,40.3L12.1,40.3z"
		/>
	<line class="st4" x1="10.1" y1="35.1" x2="10.1" y2="35.1"/>
</g>
<path class="st3" d="M14.9,9.7L14.9,9.7c0-5.4,4.4-9.7,9.7-9.7h0v0C24.7,5.4,20.3,9.7,14.9,9.7L14.9,9.7z"/>
</svg>
